<svg width="69" height="65" viewBox="0 0 69 65" fill="none" xmlns="http://www.w3.org/2000/svg">
<g id="origami">
<g id="g1961">
<path id="path1953" fill-rule="evenodd" clip-rule="evenodd" d="M11.1791 10.0913L0.138851 22.2452C0.0692429 22.3218 0.0233887 22.417 0.00685767 22.5192C-0.00967334 22.6214 0.00383479 22.7262 0.0457347 22.8209C0.0876346 22.9156 0.156122 22.996 0.242883 23.0525C0.329644 23.109 0.430942 23.139 0.534466 23.139H11.1791V10.0913Z" fill="url(#paint0_linear_46_10)"/>
<path id="path1955" fill-rule="evenodd" clip-rule="evenodd" d="M12.4197 34.4034L31.8616 14.9547L11.566 9.83893V34.0498C11.566 34.1487 11.5954 34.2454 11.6503 34.3277C11.7053 34.4099 11.7834 34.474 11.8748 34.5118C11.9662 34.5497 12.0667 34.5596 12.1637 34.5403C12.2607 34.521 12.3498 34.4733 12.4197 34.4034Z" fill="url(#paint1_linear_46_10)"/>
<path id="path1957" d="M12.4853 36.5251L23.5034 46.1575C23.7488 46.3721 24.0673 46.4843 24.393 46.4711C24.7188 46.4579 25.0271 46.3203 25.2543 46.0865L68.7786 1.32687C68.8877 1.21475 68.9606 1.0725 68.9879 0.918513C69.0153 0.764526 68.9958 0.605877 68.932 0.46307C68.8683 0.320262 68.7631 0.199859 68.6302 0.117424C68.4973 0.0349882 68.3428 -0.00569066 68.1865 0.000641251L49.0099 0.777648C47.3391 0.845349 45.7549 1.53958 44.5727 2.72222L12.4299 34.8763C12.3206 34.9857 12.2348 35.1164 12.1781 35.2602C12.1213 35.4041 12.0947 35.5581 12.0999 35.7127C12.1051 35.8673 12.142 36.0192 12.2083 36.1589C12.2746 36.2986 12.3688 36.4233 12.4853 36.5251L12.4853 36.5251Z" fill="url(#paint2_linear_46_10)"/>
<path id="path1959" fill-rule="evenodd" clip-rule="evenodd" d="M38.8353 32.5279L25.3983 46.4975C25.2921 46.6078 25.2102 46.7391 25.1577 46.8829C25.1052 47.0268 25.0833 47.18 25.0933 47.3327C25.1034 47.4855 25.1452 47.6345 25.2162 47.7702C25.2871 47.9059 25.3856 48.0253 25.5052 48.1207L46.4814 64.8496C46.5475 64.9023 46.6284 64.9328 46.7128 64.937C46.7972 64.9411 46.8807 64.9185 46.9515 64.8725C47.0224 64.8265 47.077 64.7594 47.1076 64.6806C47.1382 64.6019 47.1432 64.5155 47.1219 64.4338L38.8353 32.5279Z" fill="url(#paint3_linear_46_10)"/>
</g>
<path id="path2380" d="M21.9577 37.6759C21.9837 37.6759 22.0047 37.6548 22.0047 37.6288C22.0047 37.6028 21.9837 37.5818 21.9577 37.5818C21.9317 37.5818 21.9106 37.6028 21.9106 37.6288C21.9106 37.6548 21.9317 37.6759 21.9577 37.6759Z" fill="#C5C5C6" stroke="black" stroke-width="0.999999"/>
<path id="path2382" d="M29.9369 24.9554C29.9629 24.9554 29.984 24.9344 29.984 24.9084C29.984 24.8824 29.9629 24.8613 29.9369 24.8613C29.911 24.8613 29.8899 24.8824 29.8899 24.9084C29.8899 24.9344 29.911 24.9554 29.9369 24.9554Z" fill="#C5C5C6" stroke="black" stroke-width="0.999999"/>
<path id="path2384" d="M29.9369 24.9554C29.9629 24.9554 29.984 24.9344 29.984 24.9084C29.984 24.8824 29.9629 24.8613 29.9369 24.8613C29.911 24.8613 29.8899 24.8824 29.8899 24.9084C29.8899 24.9344 29.911 24.9554 29.9369 24.9554Z" fill="#C5C5C6" stroke="black" stroke-width="0.999999"/>
<path id="path2386" d="M29.9369 24.9554C29.9629 24.9554 29.984 24.9344 29.984 24.9084C29.984 24.8824 29.9629 24.8613 29.9369 24.8613C29.911 24.8613 29.8899 24.8824 29.8899 24.9084C29.8899 24.9344 29.911 24.9554 29.9369 24.9554Z" fill="#C5C5C6" stroke="black" stroke-width="0.999999"/>
</g>
<defs>
<linearGradient id="paint0_linear_46_10" x1="33.2618" y1="-0.192245" x2="33.2618" y2="64.5338" gradientUnits="userSpaceOnUse">
<stop stop-color="#8C96F2"/>
<stop offset="1" stop-color="#162DD5"/>
</linearGradient>
<linearGradient id="paint1_linear_46_10" x1="36.1782" y1="-0.192246" x2="36.1782" y2="64.5338" gradientUnits="userSpaceOnUse">
<stop stop-color="#8C96F2"/>
<stop offset="1" stop-color="#162DD5"/>
</linearGradient>
<linearGradient id="paint2_linear_46_10" x1="33.2618" y1="-0.192245" x2="33.2618" y2="64.5338" gradientUnits="userSpaceOnUse">
<stop stop-color="#8C96F2"/>
<stop offset="1" stop-color="#162DD5"/>
</linearGradient>
<linearGradient id="paint3_linear_46_10" x1="33.2618" y1="-0.192266" x2="33.2618" y2="64.5338" gradientUnits="userSpaceOnUse">
<stop stop-color="#8C96F2"/>
<stop offset="1" stop-color="#162DD5"/>
</linearGradient>
</defs>
</svg>
