<svg width="69" height="57" viewBox="0 0 69 57" fill="none"
    xmlns="http://www.w3.org/2000/svg">
    <g id="bird">
        <g id="g32310">
            <path id="path32294" opacity="0.79" d="M14.8976 17.9823C14.639 16.2432 14.2743 14.2884 14.0871 13.6383C13.46 11.46 12.4779 9.89251 10.696 8.22559C9.56206 7.16485 9.59881 7.1552 12.2116 7.82767C17.0774 9.08004 19.9608 11.1111 22.2275 14.8828C22.5954 15.4949 22.7205 15.8195 22.6036 15.8584C22.5073 15.8905 21.5817 16.4834 20.5467 17.1759C18.8947 18.2813 18.1933 18.8143 15.8765 20.7247L15.3678 21.1442L14.8976 17.9823Z" fill="#C5C5C6"/>
            <path id="path32296" opacity="0.79" d="M22.5435 14.5251C21.1023 12.0887 19.0679 10.1894 16.5662 8.94486C14.7941 8.06325 13.9405 7.7791 11.3762 7.21714C6.54471 6.15832 5.08235 5.90062 1.49603 5.47603L0 5.29892L0.712412 5.0791C1.27112 4.90668 2.19317 4.85792 4.9868 4.85302L8.54878 4.84678L9.33242 4.25109C11.1261 2.88757 13.5847 2.06842 15.8834 2.06842C18.0472 2.06842 19.5898 2.64412 20.8462 3.9205C21.7413 4.82979 22.3604 6.01808 23.2962 8.62248C24.227 11.2133 24.8434 12.5192 25.4916 13.2736L25.9988 13.8639L25.6765 14.0751C25.4992 14.1913 24.8422 14.5437 24.2165 14.8583L23.0789 15.4303L22.5435 14.5251Z" fill="#C5C5C6"/>
            <path id="path32298" opacity="0.79" d="M29.3509 12.3638C29.5913 12.115 33.6179 9.80097 36.4749 8.26991C48.9622 1.57803 59.0504 -1.11899 65.8319 0.421475C67.1406 0.718744 69.0482 1.37897 68.9992 1.51768C68.9778 1.57821 67.3894 2.84814 65.4695 4.33978L61.9788 7.05185L60.1266 6.94669C56.6466 6.74908 50.0392 6.83542 48.087 7.10399C43.4534 7.74147 36.0451 9.76748 31.2032 11.7214C29.1394 12.5542 29.1811 12.5397 29.3509 12.3638Z" fill="#C5C5C6"/>
            <path id="path32300" opacity="0.79" d="M35.2138 53.8833C32.8672 46.9758 30.8513 42.0814 29.6826 40.4539C29.3681 40.0161 28.9446 39.6595 28.4248 39.3951C27.2783 38.812 25.7987 37.7295 24.5401 36.5531C23.1585 35.2619 21.2397 32.9906 21.3972 32.8331C21.6204 32.6099 23.6445 32.3839 24.5759 32.4782C29.3146 32.958 33.2179 36.3991 34.976 41.6467C35.7166 43.8573 35.846 45.0207 35.8986 49.9416C35.925 52.4101 36.0172 54.9375 36.1034 55.5582C36.1897 56.1788 36.2444 56.7023 36.2251 56.7215C36.2057 56.7406 35.7506 55.4635 35.2138 53.8833Z" fill="#C5C5C6"/>
            <path id="path32302" opacity="0.79" d="M35.9325 43.815C35.8694 43.384 35.5941 42.3605 35.3207 41.5406C33.8472 37.1202 30.9052 33.9349 27.071 32.6088C26.042 32.2528 25.7373 32.2139 23.9365 32.2087C22.6935 32.2051 21.7618 32.2692 21.4641 32.3787C21.0292 32.5387 20.9629 32.526 20.7244 32.2362C20.0562 31.4245 20.0589 31.4027 20.9947 30.0364C22.2256 28.2392 22.2959 28.1869 23.719 28.0086C26.4872 27.6617 29.2655 27.8373 32.7988 28.5823L34.2772 28.8941L34.8296 30.0498C36.1015 32.7112 36.4835 36.4873 36.1354 42.9601C36.0523 44.5045 36.0407 44.5536 35.9325 43.815Z" fill="#C5C5C6"/>
            <path id="path32304" opacity="0.79" d="M32.2718 28.1259C29.4058 27.5148 27.4247 27.3604 24.9923 27.5585C23.8808 27.649 22.9454 27.6971 22.9138 27.6655C22.8821 27.6338 23.3118 27.2148 23.8687 26.7343C26.8674 24.147 30.0706 22.7713 34.7106 22.0778C36.4722 21.8145 43.1044 21.6226 42.8865 21.8412C42.6943 22.034 34.2475 28.5742 34.2183 28.5528C34.2056 28.5436 33.3297 28.3514 32.2718 28.1259Z" fill="#C5C5C6"/>
            <path id="path32306" opacity="0.79" d="M19.0021 29.7445C18.5607 29.0591 17.9589 28.0604 17.6646 27.5249L17.1296 26.5515L17.9684 25.6968C23.35 20.2134 31.274 16.8094 41.2974 15.6749C43.5916 15.4153 49.9035 15.1617 50.6919 15.2974L51.2311 15.3903L47.3436 18.4131L43.4562 21.4359L40.4533 21.4408C38.8016 21.4434 36.7499 21.514 35.8939 21.5976C31.4641 22.0299 27.6824 23.3479 24.8748 25.4378C23.4897 26.4687 21.4108 28.6631 20.5882 29.9624C20.2356 30.5194 19.915 30.9785 19.8758 30.9828C19.8367 30.987 19.4435 30.4297 19.0021 29.7444V29.7445Z" fill="#C5C5C6"/>
            <path id="path32308" opacity="0.79" d="M16.5944 25.4757C16.099 24.3766 15.883 23.7173 15.6709 22.6567L15.4714 21.6594L16.0708 21.1052C18.6 18.7667 22.1917 16.374 26.1506 14.3902C32.6639 11.1264 42.0974 8.19897 48.7143 7.38827C50.6957 7.14549 57.709 7.09586 60.2503 7.30662L61.5138 7.4114L56.7126 11.129L51.9114 14.8466L48.1826 14.937C41.0219 15.1104 36.0652 15.8309 31.2032 17.4052C26.0973 19.0585 21.7991 21.5462 18.2108 24.9249L16.9017 26.1575L16.5944 25.4757Z" fill="#C5C5C6"/>
        </g>
    </g>
</svg>
