<svg width="69" height="65" viewBox="0 0 69 65" fill="none" xmlns="http://www.w3.org/2000/svg">
<g id="origami bird plain ">
<g id="g27690">
<path id="rect271" fill-rule="evenodd" clip-rule="evenodd" d="M11.1791 10.0913L0.138851 22.2452C0.0692429 22.3218 0.0233887 22.417 0.00685767 22.5192C-0.00967334 22.6214 0.00383479 22.7262 0.0457347 22.8209C0.0876346 22.9156 0.156122 22.996 0.242883 23.0525C0.329644 23.109 0.430942 23.139 0.534466 23.139H11.1791V10.0913Z" fill="#C5C5C6"/>
<path id="path1034" fill-rule="evenodd" clip-rule="evenodd" d="M12.4197 34.4034L31.8616 14.9547L11.566 9.83893V34.0498C11.566 34.1487 11.5954 34.2454 11.6503 34.3277C11.7053 34.4099 11.7834 34.474 11.8748 34.5118C11.9662 34.5497 12.0667 34.5596 12.1637 34.5403C12.2607 34.521 12.3498 34.4733 12.4197 34.4034Z" fill="#C5C5C6"/>
<path id="path23800" d="M12.4853 36.5251L23.5034 46.1575C23.7488 46.372 24.0672 46.4843 24.393 46.4711C24.7188 46.4579 25.0271 46.3203 25.2543 46.0865L68.7786 1.32687C68.8877 1.21475 68.9606 1.0725 68.9879 0.918513C69.0153 0.764526 68.9958 0.605877 68.932 0.46307C68.8683 0.320262 68.7631 0.199859 68.6302 0.117424C68.4973 0.0349882 68.3427 -0.00569066 68.1865 0.000641251L49.0099 0.777648C47.3391 0.845349 45.7549 1.53958 44.5727 2.72222L12.4299 34.8763C12.3206 34.9857 12.2348 35.1164 12.1781 35.2602C12.1213 35.4041 12.0947 35.5581 12.0999 35.7127C12.1051 35.8673 12.142 36.0192 12.2083 36.1589C12.2746 36.2986 12.3688 36.4233 12.4853 36.5251L12.4853 36.5251Z" fill="#C5C5C6"/>
<path id="path24099" fill-rule="evenodd" clip-rule="evenodd" d="M38.8353 32.528L25.3983 46.4976C25.2921 46.6079 25.2102 46.7392 25.1577 46.883C25.1052 47.0268 25.0833 47.18 25.0933 47.3328C25.1034 47.4856 25.1452 47.6346 25.2162 47.7702C25.2871 47.9059 25.3856 48.0253 25.5052 48.1208L46.4814 64.8497C46.5475 64.9023 46.6284 64.9329 46.7128 64.937C46.7972 64.9411 46.8807 64.9186 46.9515 64.8726C47.0224 64.8266 47.077 64.7595 47.1076 64.6807C47.1381 64.602 47.1432 64.5156 47.1219 64.4338L38.8353 32.528Z" fill="#C5C5C6"/>
</g>
</g>
</svg>
