<svg width="17" height="16" viewBox="0 0 17 16" fill="none" xmlns="http://www.w3.org/2000/svg">
<g id="google-tile 1" clip-path="url(#clip0_1198_744)">
<g id="Group 3">
<path id="Vector" d="M16.4953 0H0.504688C0.502099 0 0.5 0.00209867 0.5 0.0046875V15.9953C0.5 15.9979 0.502099 16 0.504688 16H16.4953C16.4979 16 16.5 15.9979 16.5 15.9953V0.0046875C16.5 0.00209867 16.4979 0 16.4953 0Z" fill="white"/>
<path id="Vector_2" d="M12.5625 12.5C13.9688 11.1875 14.5938 9 14.2188 6.90625H8.625V9.21875H11.8125C11.6875 9.96875 11.25 10.5938 10.625 11L12.5625 12.5Z" fill="#4285F4"/>
<path id="Vector_3" d="M3.3125 10.6562C3.72359 11.4661 4.31316 12.172 5.03675 12.7208C5.76034 13.2696 6.59908 13.647 7.48973 13.8246C8.38039 14.0021 9.29973 13.9751 10.1784 13.7457C11.0572 13.5162 11.8723 13.0903 12.5625 12.5L10.625 11C8.96875 12.0938 6.21875 11.6875 5.28125 9.125L3.3125 10.6562Z" fill="#34A853"/>
<path id="Vector_4" d="M5.28125 9.125C5.03125 8.34375 5.03125 7.625 5.28125 6.84375L3.3125 5.3125C2.59375 6.75 2.375 8.78125 3.3125 10.6562L5.28125 9.125Z" fill="#FBBC02"/>
<path id="Vector_5" d="M5.28125 6.84377C5.96875 4.68752 8.90625 3.43752 10.875 5.28127L12.5938 3.59377C10.1562 1.25002 5.40625 1.34377 3.3125 5.31252L5.28125 6.84377Z" fill="#EA4335"/>
</g>
</g>
<defs>
<clipPath id="clip0_1198_744">
<rect width="16" height="16" fill="white" transform="translate(0.5)"/>
</clipPath>
</defs>
</svg>
