<svg width="218" height="238" viewBox="0 0 218 238" fill="none" xmlns="http://www.w3.org/2000/svg">
<g id="Group 15">
<path id="XMLID_8_" d="M109.274 101.109H205.212C209.388 101.109 213.092 103.338 215.093 106.789L139.244 168.062H109.274H108.185H78.2157L2.37844 106.798C4.50154 103.335 8.21277 101.109 12.3834 101.109H108.185H109.274Z" stroke="white" stroke-width="1.36082"/>
<path id="XMLID_7_" d="M215.555 105.736L108.73 0.680412V0L108.458 0.272165L108.186 0V0.680412L1.36084 105.736H215.555Z" fill="white"/>
<path id="XMLID_6_" d="M193.373 55.7939H24.0867V174.05H193.373V55.7939Z" fill="#824CB8"/>
<path id="XMLID_5_" d="M164.115 88.7261H53.3444V95.8024H164.115V88.7261Z" fill="black"/>
<path id="XMLID_4_" d="M164.115 114.854H53.3444V121.93H164.115V114.854Z" fill="black"/>
<path id="XMLID_3_" d="M22.5897 237.464L110.091 174.05L1.49691 106.961C0.54433 108.594 0 110.635 0 112.812V220.318C0 229.843 7.62062 237.464 17.1464 237.464H22.5897Z" fill="white"/>
<path id="XMLID_2_" d="M199.905 237.464C209.431 237.464 217.051 229.843 217.051 220.318V112.812C217.051 110.635 216.507 108.73 215.555 106.961L106.961 174.186L194.462 237.6H199.905V237.464Z" fill="white"/>
<path id="XMLID_1_" d="M179.084 237.463L108.866 185.48L38.2391 237.463H179.084Z" fill="white"/>
</g>
</svg>
